<svg width="38" height="51" viewBox="0 0 38 51" fill="none" xmlns="http://www.w3.org/2000/svg">
<path d="M18.7465 50.1506C29.0998 50.1506 37.4928 42.2776 37.4928 32.5656C37.4928 25.2577 29.285 14.8546 25.9664 5.80635C25.2974 3.98258 25.6346 2.15663 25.5516 1.16125C25.4938 0.467704 25.4687 -2.40523e-05 24.971 -2.3365e-05C22.3495 0.619925 21.808 3.04841 20.9065 6.0552C19.2896 10.5206 13.4045 10.7717 5.30363 20.2893C0.957182 25.3958 0.000244141 29.6062 0.000244141 32.5656C0.000244141 42.2776 8.39325 50.1506 18.7465 50.1506Z" fill="url(#paint0_linear_75_1968)"/>
<path d="M18.9064 48.6111C28.6209 48.6111 36.496 41.2238 36.496 32.1111C36.496 25.2541 28.7946 15.4929 25.6807 7.00294C25.0531 5.29169 25.3694 3.57841 25.2916 2.64445C25.2373 1.99369 25.2137 1.55482 24.7468 1.55482C22.287 2.13652 21.7789 4.41517 20.9331 7.23643C19.4159 11.4263 13.6598 11.5342 6.2929 20.5922C2.29121 25.5125 1.41563 30.3995 1.31675 32.1111C1.31675 41.2238 9.19189 48.6111 18.9064 48.6111Z" fill="url(#paint1_linear_75_1968)"/>
<path d="M18.9064 48.6111C28.6209 48.6111 36.496 41.2238 36.496 32.1111C36.496 25.2541 28.7946 15.4929 25.6807 7.00294C25.0531 5.29169 25.3694 3.57841 25.2916 2.64445C25.2373 1.99369 25.2137 1.55482 24.7468 1.55482C22.287 2.13652 21.7789 4.41517 20.9331 7.23643C19.4159 11.4263 13.6598 11.5342 6.2929 20.5922C2.29121 25.5125 1.41563 30.3995 1.31675 32.1111C1.31675 41.2238 9.19189 48.6111 18.9064 48.6111Z" fill="url(#paint2_radial_75_1968)"/>
<path d="M15.3645 34.0371C15.3645 36.2483 13.4226 38.0408 11.0271 38.0408C8.63165 38.0408 6.68974 36.2483 6.68974 34.0371C6.68974 31.8259 8.63165 30.0333 11.0271 30.0333C13.4226 30.0333 15.3645 31.8259 15.3645 34.0371Z" fill="black"/>
<path d="M14.1634 33.1029C14.1634 34.1348 13.2671 34.9713 12.1615 34.9713C11.0559 34.9713 10.1596 34.1348 10.1596 33.1029C10.1596 32.071 11.0559 31.2345 12.1615 31.2345C13.2671 31.2345 14.1634 32.071 14.1634 33.1029Z" fill="white"/>
<path d="M10.56 36.2391C10.56 36.6445 10.2015 36.9731 9.75928 36.9731C9.31704 36.9731 8.95854 36.6445 8.95854 36.2391C8.95854 35.8337 9.31704 35.5051 9.75928 35.5051C10.2015 35.5051 10.56 35.8337 10.56 36.2391Z" fill="white"/>
<path d="M7.49049 37.8406C7.49049 38.246 7.13198 38.5746 6.68974 38.5746C6.2475 38.5746 5.889 38.246 5.889 37.8406C5.889 37.4352 6.2475 37.1066 6.68974 37.1066C7.13198 37.1066 7.49049 37.4352 7.49049 37.8406Z" fill="#FDADC8"/>
<path d="M30.7121 34.1705C30.7121 36.4554 28.7702 38.3077 26.3747 38.3077C23.9793 38.3077 22.0374 36.4554 22.0374 34.1705C22.0374 31.8856 23.9793 30.0333 26.3747 30.0333C28.7702 30.0333 30.7121 31.8856 30.7121 34.1705Z" fill="black"/>
<path d="M29.6444 33.1028C29.6444 34.1347 28.7482 34.9712 27.6426 34.9712C26.537 34.9712 25.6407 34.1347 25.6407 33.1028C25.6407 32.0709 26.537 31.2344 27.6426 31.2344C28.7482 31.2344 29.6444 32.0709 29.6444 33.1028Z" fill="white"/>
<path d="M26.1745 36.6395C26.1745 37.0449 25.816 37.3735 25.3738 37.3735C24.9315 37.3735 24.573 37.0449 24.573 36.6395C24.573 36.2341 24.9315 35.9055 25.3738 35.9055C25.816 35.9055 26.1745 36.2341 26.1745 36.6395Z" fill="white"/>
<path d="M31.9132 37.2401C31.9132 37.6086 31.5846 37.9073 31.1792 37.9073C30.7738 37.9073 30.4452 37.6086 30.4452 37.2401C30.4452 36.8715 30.7738 36.5728 31.1792 36.5728C31.5846 36.5728 31.9132 36.8715 31.9132 37.2401Z" fill="#FDADC8"/>
<path d="M21.8589 38.1773C21.9373 38.5209 21.9131 38.8729 21.7879 39.2089C21.6627 39.5448 21.4395 39.8568 21.1339 40.1231C20.8283 40.3894 20.4474 40.6037 20.0178 40.7512C19.5882 40.8986 19.1201 40.9756 18.646 40.9768C18.1719 40.9781 17.703 40.9036 17.272 40.7584C16.8409 40.6133 16.458 40.4011 16.1498 40.1364C15.8415 39.8717 15.6153 39.5609 15.4868 39.2256C15.3583 38.8903 15.3306 38.5384 15.4057 38.1945L18.646 38.1773H21.8589Z" fill="#FDADC8"/>
<defs>
<linearGradient id="paint0_linear_75_1968" x1="18.6431" y1="-6.57264" x2="18.6431" y2="50.164" gradientUnits="userSpaceOnUse">
<stop stop-color="#9F9CF7" stop-opacity="0.5"/>
<stop offset="1" stop-color="#2D29CB"/>
</linearGradient>
<linearGradient id="paint1_linear_75_1968" x1="18.6431" y1="-6.57264" x2="18.6431" y2="50.164" gradientUnits="userSpaceOnUse">
<stop stop-color="#2D29CB" stop-opacity="0.5"/>
<stop offset="1" stop-color="#2D29CB"/>
</linearGradient>
<radialGradient id="paint2_radial_75_1968" cx="0" cy="0" r="1" gradientUnits="userSpaceOnUse" gradientTransform="translate(23.7859 21.7957) rotate(112.645) scale(29.2999 19.3619)">
<stop stop-color="#9996FB"/>
<stop offset="1" stop-color="#2D29CB"/>
</radialGradient>
</defs>
</svg>
